<svg xmlns="http://www.w3.org/2000/svg" xmlns:xlink="http://www.w3.org/1999/xlink" width="150" zoomAndPan="magnify" viewBox="0 0 112.5 112.499997" height="150" preserveAspectRatio="xMidYMid meet" version="1.0"><defs><g/><clipPath id="id1"><path d="M 67 36 L 105 36 L 105 75 L 67 75 Z M 67 36 " clip-rule="nonzero"/></clipPath><clipPath id="id2"><path d="M 107.964844 70.660156 L 71.179688 77.527344 L 64.3125 40.742188 L 101.097656 33.875 Z M 107.964844 70.660156 " clip-rule="nonzero"/></clipPath><clipPath id="id3"><path d="M 25 24 L 63 24 L 63 62 L 25 62 Z M 25 24 " clip-rule="nonzero"/></clipPath><clipPath id="id4"><path d="M 65.734375 58.191406 L 28.953125 65.054688 L 22.085938 28.273438 L 58.867188 21.40625 Z M 65.734375 58.191406 " clip-rule="nonzero"/></clipPath><clipPath id="id5"><path d="M 19 44 L 63 44 L 63 87 L 19 87 Z M 19 44 " clip-rule="nonzero"/></clipPath><clipPath id="id6"><path d="M 65.847656 82.375 L 23.945312 90.195312 L 16.125 48.292969 L 58.027344 40.472656 Z M 65.847656 82.375 " clip-rule="nonzero"/></clipPath><clipPath id="id7"><path d="M 52 52 L 87 52 L 87 86 L 52 86 Z M 52 52 " clip-rule="nonzero"/></clipPath><clipPath id="id8"><path d="M 89.261719 82.226562 L 56.316406 88.375 L 50.164062 55.429688 L 83.109375 49.28125 Z M 89.261719 82.226562 " clip-rule="nonzero"/></clipPath><clipPath id="id9"><path d="M 7 37 L 42 37 L 42 72 L 7 72 Z M 7 37 " clip-rule="nonzero"/></clipPath><clipPath id="id10"><path d="M 43.886719 68.074219 L 10.621094 74.28125 L 4.410156 41.015625 L 37.675781 34.808594 Z M 43.886719 68.074219 " clip-rule="nonzero"/></clipPath><clipPath id="id11"><path d="M 51 27 L 87 27 L 87 62 L 51 62 Z M 51 27 " clip-rule="nonzero"/></clipPath><clipPath id="id12"><path d="M 89.46875 58.507812 L 55.242188 64.894531 L 48.855469 30.671875 L 83.078125 24.28125 Z M 89.46875 58.507812 " clip-rule="nonzero"/></clipPath><clipPath id="id13"><path d="M 39 49 L 66 49 L 66 76 L 39 76 Z M 39 49 " clip-rule="nonzero"/></clipPath><clipPath id="id14"><path d="M 67.675781 72.914062 L 42.40625 77.628906 L 37.6875 52.359375 L 62.957031 47.644531 Z M 67.675781 72.914062 " clip-rule="nonzero"/></clipPath></defs><g clip-path="url(#id1)"><g clip-path="url(#id2)"><path fill="#000000" d="M 89.574219 74.09375 C 99.730469 72.199219 106.429688 62.425781 104.53125 52.269531 C 102.636719 42.109375 92.863281 35.414062 82.707031 37.308594 C 72.546875 39.207031 65.851562 48.976562 67.746094 59.136719 C 69.644531 69.292969 79.414062 75.992188 89.574219 74.09375 " fill-opacity="1" fill-rule="nonzero"/></g></g><g clip-path="url(#id3)"><g clip-path="url(#id4)"><path fill="#000000" d="M 47.34375 61.621094 C 57.5 59.726562 64.199219 49.953125 62.300781 39.796875 C 60.40625 29.640625 50.632812 22.941406 40.476562 24.839844 C 30.320312 26.734375 23.621094 36.507812 25.519531 46.664062 C 27.414062 56.820312 37.1875 63.519531 47.34375 61.621094 " fill-opacity="1" fill-rule="nonzero"/></g></g><g clip-path="url(#id5)"><g clip-path="url(#id6)"><path fill="#000000" d="M 44.898438 86.285156 C 56.46875 84.125 64.097656 72.992188 61.9375 61.421875 C 59.777344 49.851562 48.644531 42.222656 37.074219 44.382812 C 25.503906 46.542969 17.875 57.675781 20.035156 69.246094 C 22.195312 80.816406 33.324219 88.445312 44.898438 86.285156 " fill-opacity="1" fill-rule="nonzero"/></g></g><g clip-path="url(#id7)"><g clip-path="url(#id8)"><path fill="#000000" d="M 72.789062 85.300781 C 81.886719 83.601562 87.882812 74.851562 86.1875 65.753906 C 84.488281 56.65625 75.734375 50.65625 66.636719 52.355469 C 57.539062 54.054688 51.542969 62.804688 53.238281 71.902344 C 54.9375 81 63.691406 87 72.789062 85.300781 " fill-opacity="1" fill-rule="nonzero"/></g></g><g clip-path="url(#id9)"><g clip-path="url(#id10)"><path fill="#000000" d="M 27.253906 71.179688 C 36.441406 69.464844 42.496094 60.625 40.78125 51.441406 C 39.066406 42.253906 30.230469 36.199219 21.042969 37.914062 C 11.859375 39.628906 5.800781 48.464844 7.515625 57.648438 C 9.230469 66.835938 18.070312 72.894531 27.253906 71.179688 " fill-opacity="1" fill-rule="nonzero"/></g></g><g clip-path="url(#id11)"><g clip-path="url(#id12)"><path fill="#000000" d="M 72.355469 61.703125 C 81.808594 59.9375 88.039062 50.84375 86.273438 41.394531 C 84.507812 31.945312 75.417969 25.710938 65.964844 27.476562 C 56.515625 29.242188 50.285156 38.332031 52.046875 47.785156 C 53.8125 57.234375 62.90625 63.464844 72.355469 61.703125 " fill-opacity="1" fill-rule="nonzero"/></g></g><g clip-path="url(#id13)"><g clip-path="url(#id14)"><path fill="#000000" d="M 55.039062 75.269531 C 62.019531 73.96875 66.617188 67.257812 65.316406 60.277344 C 64.015625 53.300781 57.300781 48.699219 50.324219 50.003906 C 43.34375 51.304688 38.746094 58.019531 40.046875 64.996094 C 41.351562 71.972656 48.0625 76.574219 55.039062 75.269531 " fill-opacity="1" fill-rule="nonzero"/></g></g><g fill="#ffffff" fill-opacity="1"><g transform="translate(22.860514, 59.062495)"><g><path d="M 3.015625 -10.046875 L 3.015625 -2.015625 L 6.484375 -2.015625 L 6.484375 0 L 0.734375 0 L 0.734375 -10.046875 Z M 3.015625 -10.046875 "/></g></g></g><g fill="#ffffff" fill-opacity="1"><g transform="translate(29.380735, 59.062495)"><g><path d="M 5.84375 -10.046875 L 9.890625 0 L 7.4375 0 L 6.6875 -2.015625 L 2.859375 -2.015625 L 2.125 0 L -0.34375 0 L 3.71875 -10.046875 Z M 5.90625 -4.015625 L 4.796875 -6.953125 L 4.765625 -6.953125 L 3.640625 -4.015625 Z M 5.90625 -4.015625 "/></g></g></g><g fill="#ffffff" fill-opacity="1"><g transform="translate(38.569993, 59.062495)"><g><path d="M 3.015625 -10.046875 L 3.015625 -2.015625 L 6.484375 -2.015625 L 6.484375 0 L 0.734375 0 L 0.734375 -10.046875 Z M 3.015625 -10.046875 "/></g></g></g><g fill="#ffffff" fill-opacity="1"><g transform="translate(45.090214, 59.062495)"><g><path d="M 5.84375 -10.046875 L 9.890625 0 L 7.4375 0 L 6.6875 -2.015625 L 2.859375 -2.015625 L 2.125 0 L -0.34375 0 L 3.71875 -10.046875 Z M 5.90625 -4.015625 L 4.796875 -6.953125 L 4.765625 -6.953125 L 3.640625 -4.015625 Z M 5.90625 -4.015625 "/></g></g></g><g fill="#ffffff" fill-opacity="1"><g transform="translate(54.279472, 59.062495)"><g><path d="M 3.015625 -6.234375 L 3.015625 0 L 0.734375 0 L 0.734375 -10.046875 L 3.015625 -10.046875 L 7.015625 -3.8125 L 7.046875 -3.8125 L 7.046875 -10.046875 L 9.328125 -10.046875 L 9.328125 0 L 7.046875 0 L 3.046875 -6.234375 Z M 3.015625 -6.234375 "/></g></g></g><g fill="#ffffff" fill-opacity="1"><g transform="translate(63.980602, 59.062495)"><g><path d="M 0.09375 -8.046875 L 0.09375 -10.046875 L 7.171875 -10.046875 L 7.171875 -8.046875 L 4.78125 -8.046875 L 4.78125 0 L 2.484375 0 L 2.484375 -8.046875 Z M 0.09375 -8.046875 "/></g></g></g><g fill="#ffffff" fill-opacity="1"><g transform="translate(70.878625, 59.062495)"><g><path d="M 3.015625 -4.03125 L 3.015625 0 L 0.734375 0 L 0.734375 -10.046875 L 3.015625 -10.046875 L 3.015625 -6.046875 L 6.265625 -6.046875 L 6.265625 -10.046875 L 8.5625 -10.046875 L 8.5625 0 L 6.265625 0 L 6.265625 -4.03125 Z M 3.015625 -4.03125 "/></g></g></g><g fill="#ffffff" fill-opacity="1"><g transform="translate(79.799757, 59.062495)"><g><path d="M 5.84375 -10.046875 L 9.890625 0 L 7.4375 0 L 6.6875 -2.015625 L 2.859375 -2.015625 L 2.125 0 L -0.34375 0 L 3.71875 -10.046875 Z M 5.90625 -4.015625 L 4.796875 -6.953125 L 4.765625 -6.953125 L 3.640625 -4.015625 Z M 5.90625 -4.015625 "/></g></g></g><g fill="#ffffff" fill-opacity="1"><g transform="translate(88.977695, 59.062495)"><g/></g></g><g fill="#ffffff" fill-opacity="1"><g transform="translate(91.939182, 59.062495)"><g/></g></g><g fill="#ff1616" fill-opacity="1"><g transform="translate(94.895663, 59.062495)"><g><path d="M 2.125 -2.609375 C 2.507812 -2.609375 2.835938 -2.472656 3.109375 -2.203125 C 3.378906 -1.929688 3.515625 -1.597656 3.515625 -1.203125 C 3.515625 -0.828125 3.378906 -0.5 3.109375 -0.21875 C 2.835938 0.0507812 2.507812 0.1875 2.125 0.1875 C 1.738281 0.1875 1.410156 0.0507812 1.140625 -0.21875 C 0.867188 -0.5 0.734375 -0.828125 0.734375 -1.203125 C 0.734375 -1.597656 0.867188 -1.929688 1.140625 -2.203125 C 1.410156 -2.472656 1.738281 -2.609375 2.125 -2.609375 Z M 2.125 -2.609375 "/></g></g></g></svg>